<?xml version="1.0" encoding="utf-8"?>
<!-- Generator: Adobe Illustrator 28.0.0, SVG Export Plug-In . SVG Version: 6.00 Build 0)  -->
<svg version="1.1" id="Layer_1" xmlns="http://www.w3.org/2000/svg" xmlns:xlink="http://www.w3.org/1999/xlink" x="0px" y="0px"
	 viewBox="0 0 32.52 33.33" style="enable-background:new 0 0 32.52 33.33;" xml:space="preserve">
<style type="text/css">
	.st0{fill:#666666;}
	.st1{fill:#0071BC;}
</style>
<g>
	<path class="st0" d="M18.56,2.55c0.28,0,0.56,0,0.83-0.04c-1.05-0.72-2.1-1.45-3.14-2.18c-1.05,0.74-2.1,1.48-3.16,2.2
		C14.91,2.57,16.74,2.54,18.56,2.55z"/>
	<path class="st0" d="M31.35,10.87c-0.55-0.4-1.11-0.78-1.68-1.16c0.01,0.9,0,1.79,0.01,2.69C30.25,11.89,30.79,11.37,31.35,10.87z"
		/>
	<path class="st1" d="M4.14,13.7c0.37,0.32,0.72,0.65,1.08,0.98l0.07,0.06c0.15,0.14,0.31,0.28,0.46,0.42
		c0.04,0.04,0.13,0.12,0.17,0.16c0.23,0.22,0.46,0.44,0.7,0.65c0.16,0.14,0.31,0.28,0.46,0.43c0.27,0.27,0.57,0.52,0.85,0.77
		l-0.01,0.02c0.15,0.14,0.31,0.28,0.46,0.42c0.15,0.14,0.31,0.28,0.47,0.42c0.2,0.19,0.41,0.39,0.61,0.58
		c0.11,0.11,0.23,0.21,0.34,0.32c0.24,0.22,0.48,0.45,0.72,0.67c0.18,0.17,0.36,0.33,0.54,0.5c0.21,0.19,0.41,0.38,0.62,0.58
		l0.09,0.07c0.05,0.05,0.11,0.1,0.16,0.15c0.11,0.1,0.22,0.2,0.32,0.3c0.69,0.65,1.38,1.29,2.07,1.93c0.06,0.06,0.13,0.12,0.2,0.18
		c0.56,0.52,1.12,1.04,1.68,1.57c0.56-0.52,1.12-1.05,1.68-1.57c0.09-0.08,0.18-0.17,0.27-0.25c0.7-0.65,1.41-1.31,2.11-1.96
		c0.77-0.71,1.54-1.42,2.3-2.13c0.6-0.56,1.2-1.11,1.79-1.67l0.07-0.07c0.09-0.08,0.18-0.16,0.27-0.24c0.33-0.3,0.66-0.6,0.99-0.9
		c0.11-0.1,0.22-0.21,0.33-0.31c0.16-0.15,0.33-0.3,0.49-0.45c0.02-0.02,0.06-0.05,0.08-0.07l0.1-0.09
		c0.56-0.52,1.13-1.05,1.69-1.57c-0.01-2.76,0-5.52,0-8.28V4.34c0,0,0,0,0,0V3.96c0-0.05-0.01-0.09-0.01-0.13
		c-8.08,0.01-16.16,0-24.25,0.01C4.14,7.13,4.12,10.42,4.14,13.7z M12.14,20.4l-0.1-0.08c-0.05-0.04-0.09-0.09-0.14-0.13
		c-0.01-0.46-0.01-0.92-0.09-1.37c0.15-0.08,0.29-0.16,0.44-0.24c0.03,0.65,0.04,1.3,0.04,1.96C12.23,20.49,12.19,20.45,12.14,20.4z
		 M26.66,11.22c0.01,0.06,0.02,0.18,0.02,0.24c-0.44,0.96-0.89,1.92-1.29,2.9c-0.42-0.07-0.54-0.56-0.82-0.83
		c-1.26,0.91-2.52,1.81-3.79,2.72c-0.24,0.18-0.54,0.32-0.68,0.6c0.86-0.28,1.63-0.77,2.47-1.12c0,0.85,0.01,1.71,0.01,2.56
		c-0.91,0.84-1.81,1.68-2.7,2.5c-0.12,0.11-0.23,0.22-0.35,0.33h-5.54c-0.36,0.04-0.71-0.28-0.7-0.63c-0.01-0.85-0.01-1.7,0-2.56
		c0.72-0.53,1.49-1,2.16-1.59c-0.18,0.02-0.36,0.06-0.52,0.15c-1.36,0.65-2.72,1.32-4.08,1.96c0.04,0.3,0.09,0.59,0.13,0.89
		c-0.06-0.06-0.12-0.11-0.18-0.17c-0.29-0.27-0.59-0.55-0.89-0.83c2.01-1.27,4.04-2.51,6.05-3.79c0.13-0.08,0.29-0.18,0.44-0.08
		c0.94,0.46,1.86,0.97,2.81,1.41c1.53-1.12,3.11-2.19,4.62-3.34c-0.18-0.32-0.47-0.58-0.6-0.93C24.37,11.42,25.52,11.36,26.66,11.22
		z M22.58,8.74c0.01,1.31,0,2.62,0.01,3.93c-1.12,0.82-2.26,1.6-3.37,2.43c-1-0.47-1.96-1.03-2.97-1.48
		c-1.01,0.57-1.97,1.22-2.96,1.82c0.01-2.23-0.01-4.47,0.01-6.7c-0.02-0.36,0.34-0.68,0.7-0.65c2.64,0.01,5.28,0,7.91,0.01
		C22.26,8.08,22.6,8.38,22.58,8.74z M8.96,5.78c3.84,0.01,7.68-0.01,11.52,0.01c0.22,0.54,0.43,1.09,0.62,1.65
		c-0.11,0.03-0.25,0.14-0.34,0.01c-0.29-0.23-0.47-0.7-0.9-0.66c-3.23,0.01-6.46-0.01-9.69,0.01c0.97,3.06,1.6,6.23,1.91,9.42
		c-0.18,0.1-0.35,0.2-0.54,0.3c-0.5-3.6-1.58-7.11-2.9-10.5C8.51,5.79,8.82,5.77,8.96,5.78z M5.84,10.73
		c1.25-0.02,2.5-0.01,3.75-0.01c0.09,0.4,0.23,0.78,0.27,1.19c-0.59-0.01-1.19,0-1.78,0c0.65,0.93,1.2,1.93,1.66,2.97
		c0.07,0.03,0.15,0.06,0.22,0.1l-0.2-0.05c0.31,0.73,0.57,1.48,0.79,2.23c-0.2,0.12-0.39,0.24-0.59,0.36
		c-0.88-2.46-2.3-4.72-4.15-6.58C5.82,10.89,5.83,10.78,5.84,10.73z"/>
	<path class="st0" d="M2.82,9.69c-0.56,0.4-1.14,0.78-1.69,1.19c0.54,0.55,1.13,1.06,1.69,1.59C2.82,11.54,2.82,10.62,2.82,9.69z"/>
	<path class="st0" d="M11.09,21.9c-0.86-0.8-1.72-1.59-2.58-2.39c-0.01-0.01-0.03-0.03-0.04-0.04c-0.21-0.19-0.42-0.39-0.63-0.58
		c-0.25-0.23-0.5-0.45-0.74-0.68c-0.17-0.16-0.34-0.33-0.52-0.49c-0.23-0.22-0.47-0.43-0.7-0.64c-0.15-0.14-0.3-0.27-0.44-0.41
		c-0.24-0.23-0.49-0.46-0.74-0.69c-1.31-1.22-2.62-2.43-3.92-3.64c-0.02,6.4,0.02,12.79-0.02,19.18
		C4.17,28.29,7.64,25.11,11.09,21.9z"/>
	<path class="st0" d="M31.73,24.14c0-3.95-0.01-7.89,0.01-11.83c-1.54,1.37-3.03,2.8-4.55,4.2c-0.19,0.17-0.38,0.35-0.58,0.53
		c-0.05,0.05-0.16,0.16-0.21,0.21l0.03,0.05c-0.03,0.01-0.1,0.03-0.13,0.04c-1.54,1.42-3.07,2.86-4.63,4.28
		c-0.11,0.11-0.22,0.22-0.33,0.32c2.57,2.37,5.14,4.73,7.71,7.09c0.89,0.85,1.81,1.67,2.69,2.52v-0.18h0
		C31.71,28.95,31.74,26.54,31.73,24.14z"/>
	<path class="st1" d="M16.65,26.26c-0.28,0.27-0.73,0.18-0.97-0.09c-1.2-1.13-2.43-2.24-3.63-3.38c-3.42,3.18-6.86,6.35-10.27,9.54
		c9.65,0,19.29-0.01,28.94,0c-3.42-3.2-6.89-6.34-10.33-9.52C19.13,23.96,17.9,25.12,16.65,26.26z"/>
	<path class="st0" d="M14.24,11.54c0.05,0.25,0.37,0.26,0.57,0.26c2.09,0,4.18,0,6.28,0c0.14-0.01,0.31,0.01,0.42-0.1
		c0.16-0.13,0.11-0.35,0.13-0.53c-0.01-0.43,0.02-0.87-0.03-1.3c-0.07-0.22-0.35-0.24-0.54-0.23c-2.05,0-4.11,0.01-6.16,0
		c-0.17,0.01-0.34-0.02-0.49,0.05c-0.25,0.08-0.19,0.38-0.2,0.58C14.23,10.69,14.19,11.11,14.24,11.54z"/>
	<rect x="17.52" y="16.69" class="st0" width="0.65" height="3.14"/>
	<rect x="15.93" y="17.74" class="st0" width="0.64" height="2.09"/>
	<rect x="14.34" y="18.49" class="st0" width="0.65" height="1.34"/>
</g>
</svg>
